<?xml version="1.0" encoding="UTF-8"?>
<svg id="Capa_1" xmlns="http://www.w3.org/2000/svg" version="1.1" viewBox="0 0 1481.81 337.64">
  <!-- Generator: Adobe Illustrator 29.0.0, SVG Export Plug-In . SVG Version: 2.1.0 Build 186)  -->
  <defs>
    <style>
      .st0 {
        fill: #fff;
      }
    </style>
  </defs>
  <path class="st0" d="M160.9.51c-5.6,2.26-27.85,12.53-28.53,13.16-1.13,1.06-1.63,2.36-1.63,4.13,0,1.37,1.78,5.46,19.74,45.48,21.67,48.3,20.49,45.4,19.13,48.02-.84,1.58-1.29,1.95-4.39,3.39-1.5.71-3.1,1.66-3.57,2.15-1.47,1.55-1.52,2.33-1.21,17.76l.26,14.14-.69,1.24c-1.55,2.79-5.05,3.94-7.64,2.5-.69-.37-5.63-4.8-11.03-9.85-5.41-5.05-10.29-9.48-10.86-9.83-1.7-1.06-3.79-.92-6.89.49-2.87,1.29-4.36,1.44-6.2.6-.66-.29-1.5-.92-1.92-1.41-.4-.49-9.48-20.6-20.2-44.72-10.69-24.11-19.71-44.17-20.02-44.56-.89-1.13-2.58-1.87-4.31-1.87-1.35,0-3.07.69-15.84,6.38-15.26,6.75-15.87,7.1-16.61,9.33-.18.58-.26,1.61-.21,2.36.08.95,5.63,13.68,19.8,45.58,19.28,43.38,19.68,44.25,20.86,45.17,1.73,1.29,3.25,1.47,5.81.66,2.36-.71,3.79-.6,5.28.43.55.34,16.73,14.82,35.95,32.16,25.67,23.17,35.11,31.84,35.55,32.68.55,1.13.6,2.02.97,20.6.23,10.69.55,23.59.71,28.64.45,14.22.45,14.58-.34,16-1.63,2.99-5.54,3.91-8.19,1.95-.6-.43-3.88-3.47-7.27-6.75-12.67-12.22-101.21-94.82-101.95-95.17-1.63-.71-4.83-.37-23.62,2.68-20.97,3.36-20,3.1-21.26,5.72-.89,1.84-.71,4.02.45,5.6,1.21,1.63,155.98,141.12,157.25,141.72,2.47,1.18,2.36,1.21,22.18-7.64,19.8-8.83,20.02-8.96,20.72-11.43.23-.92.29-8.22.23-28.11l-.11-26.87.6-1.15c.74-1.37,1.29-1.89,2.9-2.7s3.16-.78,4.91.18c.86.49,9.51,8.07,21,18.47,10.75,9.72,19.91,17.81,20.34,18.02.45.21,1.5.34,2.33.37,1.37,0,3.18-.74,19.68-8.1,12.56-5.57,18.45-8.36,19.1-8.96,1.92-1.78,1.78,3.39,1.76-61.43-.03-32.45-.14-80.24-.23-106.18l-.18-47.16-.86-1.24c-1.24-1.76-3.02-2.65-5.05-2.5l-1.58.11-14.8,11.95c-14.74,11.9-17.58,14.42-17.97,15.87-.21.86,2.33,127.48,2.81,140.95.32,8.99.29,9.59-.97,11.24-.81,1.03-2.47,1.95-3.91,2.18-2.44.37-3.21-.18-11.56-8.19-4.2-4.05-14.37-13.68-22.62-21.38-12.67-11.87-15.06-14.22-15.43-15.23-.37-1.03-.43-7.59-.58-48.5-.08-30.24-.05-47.67.11-48.3.45-1.61,1.5-2.9,2.94-3.68,2.73-1.5,3.88-3.39,3.62-5.94-.11-1-5.52-13.3-19.89-45.35C166.55-.99,167.54.98,165,.28c-1.52-.43-2.62-.37-4.1.23Z"/>
  <path class="st0" d="M519.95,71.63c-.49.21-1.24.81-1.66,1.29l-.78.95v104.71c0,93.99.05,104.83.43,105.6.26.45.86,1.13,1.37,1.41.89.55,1.55.58,17.29.58s16.44-.03,17.18-.55c1.18-.78,1.63-1.55,1.92-3.39.29-1.76.84-2.7,2.07-3.62,1.29-.97,2.62-.74,7.12,1.15,20.15,8.41,46.32,11.3,68.62,7.53,16.09-2.7,31.32-9.28,42.88-18.53,3.13-2.53,8.51-7.91,11.03-11.03,7.3-9.11,12.59-20.29,14.82-31.29,1.21-5.94,1.55-9.69,1.55-17.13,0-10.06-.95-16.61-3.62-24.86-9.85-30.46-37.96-50.49-75.06-53.44-5.2-.4-14.51-.34-19.42.14-14.85,1.44-30.87,6.01-42.79,12.24-2.58,1.35-3.86,1.41-5.44.29-1.89-1.32-1.78.89-1.78-36,0-32.61-.03-33.45-.58-34.34-1.24-2.05-.34-1.95-18.24-2.02-12.96-.05-16.26,0-16.95.32h.03ZM619.72,164.77c20.78,2.7,36.78,14.85,42.01,31.9,2.44,7.99,2.5,16.92.18,25.01-3.42,11.72-11.12,20.97-22.25,26.67-9.74,5-18.47,6.93-31.35,6.93-7.1,0-9.94-.23-16.09-1.29-12.04-2.07-25.35-7.47-33.63-13.68-3.13-2.33-2.87.32-2.87-28.68.03-28.96-.26-26.3,2.84-29.06,10.29-9.09,26.35-15.81,42.64-17.76,4.54-.55,14.32-.58,18.5-.03h0Z"/>
  <path class="st0" d="M915.04,72.06c-.49.29-1.1.97-1.35,1.55-.45.95-.49,8.48-.49,105.23s.03,104.28.49,105.23c.26.58.86,1.26,1.35,1.55.84.52,1.76.55,17.36.55,17.92,0,17.47.03,18.62-1.63.52-.78.55-2.33.69-52.5l.14-51.66,1.24-1.1c2.55-2.29,9.72-6.35,15.63-8.88,10.86-4.65,20.44-6.64,32.1-6.64,13.11,0,24.22,3.16,33.21,9.43,3.34,2.33,8.59,7.67,10.75,10.98,4.39,6.7,6.93,14.19,7.78,23.17.18,1.95.29,16.81.29,39.65v36.52l.66.97c.34.52.97,1.13,1.35,1.32.55.29,4.57.37,17.1.37,15.92,0,16.4-.03,17.32-.58,1.92-1.18,1.81,1.55,1.7-42.9-.08-44.34-.03-42.79-1.92-52.21-6.52-32.56-29.43-53.86-63.22-58.74-11.14-1.61-25.78-1.32-37.78.71-9.28,1.58-19.26,4.6-28.36,8.56-3.65,1.61-4.78,1.76-6.18.89-1.92-1.18-1.81,1.13-1.81-34.77s.11-33.91-1.84-35.08c-.84-.52-1.76-.55-17.42-.55s-16.58.03-17.42.55h0Z"/>
  <path class="st0" d="M394.81,131.03c-14.42,1.18-26.78,4.54-38.83,10.64-8.73,4.39-14.85,8.8-21.55,15.5-9.22,9.22-15.32,19.34-19.05,31.66-2.05,6.73-2.76,11.98-2.76,20.2,0,11.87,1.89,21.29,6.26,31.03,8.85,19.74,26.72,34.42,51.78,42.53,17.1,5.52,39.02,7.56,62.04,5.72,17.53-1.37,33.6-5.31,48.11-11.72,1.73-.78,2.79-2.02,2.79-3.28,0-.37-2.68-6.75-5.94-14.16-5.31-12.04-6.04-13.51-6.55-13.37-.32.08-2.99.92-5.92,1.87-11.43,3.65-22.12,5.97-33.45,7.27-4.83.55-19.68.45-25.01-.18-17.79-2.07-31.29-7.18-40.98-15.5-4.46-3.86-8.83-9.98-10.14-14.22l-.21-.63h72.12c46.29,0,72.18-.08,72.3-.29.08-.14.23-2.65.34-5.52.58-18.24-3.86-34.89-13.08-48.94-7.93-12.06-18.05-21.04-31.61-27.9-12.06-6.12-24.75-9.54-39.83-10.75-4.31-.34-16.5-.32-20.86.03h.01ZM416.88,164.66c6.89.74,14.92,2.96,20.57,5.7,9.22,4.46,16.98,12.13,20.57,20.34.6,1.37,1.18,2.81,1.29,3.16l.18.66h-104.1l.21-.78c.69-2.76,3.91-8.17,7.01-11.72,7.81-9.02,21.26-15.43,36.15-17.24,3.82-.45,14.37-.55,18.13-.11h-.01Z"/>
  <path class="st0" d="M796.1,130.91c-10.23.52-24.54,2.42-36.52,4.86-9.98,2.02-26.98,6.57-28.77,7.73-1.32.89-2.21,2.42-2.33,4.1-.08,1.52.18,2.42,3.91,12.41,2.18,5.92,4.2,11.17,4.46,11.69.78,1.47,2.29,2.47,4.05,2.62,1.29.11,2.29-.14,6.96-1.76,11.09-3.79,24.09-6.55,38.2-8.14,5.75-.63,17.27-.86,22.3-.43,17.5,1.5,30.63,7.56,38.22,17.65,3.76,5.02,4.74,8.59,3.02,11.06-.92,1.35-2.73,2.36-4.23,2.36-.55,0-3.13-.43-5.72-.97-10.25-2.15-20.37-3.65-31.32-4.68-7.85-.71-27.98-.71-34.48,0-12.7,1.41-22.5,3.86-31.24,7.75-13.27,5.94-22.44,15.23-26.27,26.69-3.34,9.91-2.87,22.04,1.15,31.69,7.73,18.53,28.14,30.43,56.35,32.87,15.23,1.32,32.45.05,46.4-3.44,8.28-2.07,14.16-4.1,21.75-7.56,4.63-2.1,5.81-2.29,7.7-1.32,1.7.86,2.55,2.21,2.94,4.52.14,1.06.45,2.26.66,2.68.52.97,1.84,2.21,2.81,2.55.55.21,5.94.32,15.89.32,14.45,0,15.11-.03,16.18-.58,1.35-.66,2.21-1.73,2.65-3.13.21-.71.26-12.16.18-37.67-.11-39.8-.11-39.6-1.81-50.14-4.39-27.04-16.32-44.88-36.7-54.89-10.06-4.97-21.2-7.7-35.4-8.77-3.62-.26-16.55-.32-20.97-.08h-.04ZM809.75,219.93c10.29.95,21.29,2.62,30.17,4.63,9.98,2.21,11.01,2.62,12.06,4.71.74,1.47.74,3.82.05,5.17-.66,1.24-2.96,3.13-7.15,5.92-11.32,7.53-27.64,13.11-43.62,14.89-8.73,1-17.9.84-24.83-.4-4.28-.78-9.74-2.62-12.7-4.25-4.54-2.53-7.93-6.62-8.85-10.69-.69-2.96-.23-6.55,1.21-9.33,2.94-5.78,12.22-9.8,25.35-11.03,4.31-.4,22.39-.14,28.3.4h0Z"/>
  <path class="st0" d="M1200.69,130.88c-16.47,1.61-29,5.15-42.38,11.9-2.36,1.18-3.91,1.1-5.28-.26-.86-.86-.89-1.03-1.06-3.79-.21-3.21-.58-4.05-2.29-4.91-.89-.49-2.33-.52-17.07-.52s-16.18.03-17.07.52c-.55.29-1.24.97-1.52,1.52-.49.92-.52,3.82-.52,74.54s0,73.57.58,74.48c1.13,1.87.58,1.81,18.68,1.81s17.71.08,18.71-2.1c.52-1.18.55-2.7.55-50.71,0-44.72.05-49.6.45-50.29.55-.92,4.05-3.86,7.22-6.04,8.93-6.15,21.15-10.77,32.56-12.3,4.1-.55,12.3-.52,16.73.05,20.94,2.7,35.18,15.03,40.46,35.05.32,1.26.86,3.82,1.21,5.72.63,3.39.63,3.99.81,40.8.11,30.11.23,37.47.52,38.02.21.37.81.92,1.29,1.21.89.55,1.58.58,17.55.58h16.61l1.13-1.13,1.13-1.13v-39.46c0-24.77-.11-40.78-.32-42.93-.66-7.99-2.47-16.61-4.71-22.73-1.58-4.36-5.57-12.22-8.14-16.06-11.67-17.5-30.06-28.04-54.65-31.35-3.42-.43-18.13-.81-21.12-.52h-.03Z"/>
  <path class="st0" d="M1384.89,131.03c-18.36,1.21-39.75,5.09-57.62,10.46-5.28,1.58-6.52,2.24-7.47,3.94-1.26,2.24-1.1,2.94,3.28,14.74,2.18,5.83,4.28,11.17,4.65,11.84.84,1.44,2.58,2.39,4.49,2.39.84,0,2.44-.43,4.42-1.18,6.67-2.5,17.5-5.28,27.41-6.99,17.81-3.1,34.52-3.28,46.58-.43,13.93,3.25,24.54,10.57,29.34,20.31,1.78,3.6,1.5,5.94-1,7.93-1,.81-1.32.89-3.02.89-1.13,0-4.31-.52-7.67-1.21-15.21-3.16-27.9-4.6-43.25-4.89-15.32-.26-25.51.63-36.36,3.21-14.45,3.44-24.83,8.85-32.61,17.01-5.41,5.63-8.62,11.72-10.4,19.65-.58,2.65-.66,3.71-.66,9.46.03,5.57.11,6.86.66,9.4,3.94,18.05,17.42,30.84,39.39,37.33,18.47,5.46,44.63,5.41,66.98-.18,6.83-1.73,13.51-4.08,21-7.44,4.34-1.95,5.38-2.1,7.38-1.15,1.7.84,2.65,2.33,2.94,4.65.34,2.73,1.06,3.88,3.07,4.91.86.43,2.53.45,16.4.4l15.45-.08,1.06-.71c.58-.37,1.32-1.24,1.7-1.87l.66-1.15.08-29.74c.08-30.19-.14-43.01-.95-50.37-2.39-22.33-9.25-38.94-20.97-50.63-12.16-12.16-29.06-18.82-52.15-20.55-4.42-.32-17.71-.32-22.84.03h.01ZM1398.82,219.76c12.13,1.1,23.59,2.87,34.42,5.38,6.12,1.41,7.1,1.76,8.22,2.73,2.02,1.76,2.44,4.97.97,7.04-1.98,2.76-10.86,8.41-18.71,11.9-20.68,9.14-47.13,11.75-63.56,6.26-9.69-3.25-14.82-8.85-14.89-16.18-.03-4.91,2.21-8.88,6.64-11.67,4.63-2.94,12.09-4.94,21.6-5.83,2.29-.21,21.89.08,25.28.37h.01Z"/>
</svg>